<svg width="96" height="86" viewBox="0 0 96 86" fill="none" xmlns="http://www.w3.org/2000/svg">
<g clip-path="url(#clip0_724_2547)">
<path d="M49.1645 0.187573L46.0408 0.991613L7.55659 10.8976L4.43292 11.7016C2.91673 12.0937 1.61826 13.0701 0.8224 14.4166C0.026537 15.7631 -0.201731 17.3697 0.187675 18.8839L13.7326 71.3109C14.1254 72.8243 15.1036 74.1204 16.4526 74.9148C17.8016 75.7092 19.4112 75.937 20.9282 75.5483L20.9363 75.5463L65.6518 64.0364L65.6598 64.0343C67.176 63.6422 68.4745 62.6658 69.2704 61.3193C70.0662 59.9729 70.2945 58.3662 69.9051 56.852L56.3602 4.42499C55.9673 2.9116 54.9891 1.61553 53.6402 0.821136C52.2912 0.0267402 50.6816 -0.20111 49.1645 0.187573Z" fill="#91B3FA"/>
<path d="M49.5902 1.83122L45.8904 2.78355L8.55825 12.393L4.85854 13.3453C3.77882 13.6245 2.85415 14.3198 2.28739 15.2787C1.72063 16.2375 1.55808 17.3816 1.83538 18.46L15.3803 70.887C15.66 71.9647 16.3566 72.8876 17.3173 73.4533C18.2779 74.0191 19.4242 74.1813 20.5045 73.9045L20.5126 73.9024L65.228 62.3926L65.2361 62.3905C66.3158 62.1112 67.2405 61.4159 67.8072 60.4571C68.374 59.4982 68.5365 58.3541 68.2592 57.2758L54.7143 4.84878C54.4346 3.77107 53.738 2.84812 52.7774 2.28241C51.8167 1.71671 50.6705 1.55444 49.5902 1.83122Z" fill="white"/>
<path d="M46.7952 18.8086L24.1747 24.6311C23.9221 24.6962 23.6539 24.6584 23.4292 24.526C23.2045 24.3937 23.0416 24.1777 22.9765 23.9255C22.9113 23.6733 22.9492 23.4056 23.0818 23.1813C23.2144 22.957 23.4308 22.7945 23.6834 22.7294L46.3039 16.9069C46.5564 16.8421 46.8244 16.8801 47.049 17.0124C47.2735 17.1448 47.4362 17.3607 47.5013 17.6127C47.5664 17.8648 47.5286 18.1323 47.3962 18.3565C47.2638 18.5808 47.0477 18.7433 46.7952 18.8086Z" fill="#91B3FA"/>
<path d="M51.5548 21.006L25.0048 27.8401C24.7522 27.9051 24.484 27.8673 24.2593 27.735C24.0346 27.6026 23.8717 27.3866 23.8066 27.1344C23.7414 26.8823 23.7793 26.6146 23.9119 26.3903C24.0444 26.166 24.2609 26.0034 24.5135 25.9384L51.0635 19.1044C51.3161 19.0393 51.5843 19.0771 51.809 19.2095C52.0338 19.3418 52.1966 19.5578 52.2618 19.81C52.3269 20.0622 52.289 20.3299 52.1565 20.5542C52.0239 20.7785 51.8075 20.941 51.5548 21.006Z" fill="#91B3FA"/>
<path d="M50.5101 33.1896L27.8896 39.0122C27.7645 39.0444 27.6343 39.0517 27.5063 39.0337C27.3784 39.0156 27.2553 38.9726 27.144 38.9071C27.0328 38.8416 26.9355 38.7548 26.8578 38.6518C26.7802 38.5487 26.7236 38.4314 26.6913 38.3066C26.6591 38.1817 26.6518 38.0517 26.6698 37.924C26.6879 37.7963 26.731 37.6735 26.7966 37.5624C26.8623 37.4513 26.9492 37.3543 27.0524 37.2767C27.1557 37.1992 27.2732 37.1427 27.3983 37.1105L50.0187 31.2879C50.1438 31.2557 50.2741 31.2485 50.402 31.2665C50.5299 31.2845 50.653 31.3275 50.7643 31.3931C50.8756 31.4586 50.9728 31.5453 51.0505 31.6484C51.1282 31.7514 51.1847 31.8687 51.217 31.9936C51.2493 32.1185 51.2566 32.2484 51.2385 32.3761C51.2204 32.5038 51.1773 32.6267 51.1117 32.7378C51.0461 32.8488 50.9591 32.9459 50.8559 33.0234C50.7527 33.101 50.6352 33.1574 50.5101 33.1896Z" fill="#91B3FA"/>
<path d="M55.2696 35.3879L28.7197 42.2219C28.5946 42.2541 28.4643 42.2614 28.3364 42.2434C28.2085 42.2253 28.0854 42.1823 27.9741 42.1168C27.8628 42.0513 27.7656 41.9645 27.6879 41.8615C27.6102 41.7584 27.5537 41.6411 27.5214 41.5163C27.4891 41.3914 27.4818 41.2614 27.4999 41.1337C27.518 41.0061 27.5611 40.8832 27.6267 40.7721C27.6924 40.6611 27.7793 40.564 27.8825 40.4864C27.9857 40.4089 28.1032 40.3524 28.2283 40.3202L54.7783 33.4862C55.031 33.4212 55.2992 33.459 55.5239 33.5913C55.7486 33.7236 55.9114 33.9397 55.9766 34.1918C56.0417 34.444 56.0039 34.7117 55.8713 34.936C55.7387 35.1603 55.5223 35.3229 55.2696 35.3879Z" fill="#91B3FA"/>
<path d="M54.2262 47.5715L31.6057 53.394C31.3532 53.4589 31.0851 53.421 30.8605 53.2886C30.636 53.1562 30.4732 52.9403 30.4081 52.6882C30.343 52.4362 30.3808 52.1686 30.5133 51.9444C30.6457 51.7201 30.8619 51.5575 31.1144 51.4924L53.7349 45.6698C53.9875 45.6048 54.2557 45.6426 54.4804 45.7749C54.7051 45.9072 54.868 46.1232 54.9331 46.3754C54.9983 46.6276 54.9604 46.8953 54.8278 47.1196C54.6953 47.3439 54.4788 47.5064 54.2262 47.5715Z" fill="#91B3FA"/>
<path d="M58.9853 49.7687L32.4354 56.6028C32.3102 56.6351 32.1799 56.6425 32.0519 56.6246C31.9239 56.6066 31.8007 56.5636 31.6893 56.4981C31.578 56.4326 31.4806 56.3458 31.4029 56.2427C31.3252 56.1397 31.2685 56.0223 31.2362 55.8974C31.204 55.7724 31.1967 55.6424 31.2148 55.5146C31.2329 55.3869 31.276 55.2639 31.3418 55.1528C31.4075 55.0417 31.4945 54.9446 31.5979 54.8671C31.7012 54.7896 31.8188 54.7332 31.944 54.7011L58.494 47.867C58.7467 47.802 59.0149 47.8398 59.2396 47.9722C59.4643 48.1045 59.6271 48.3205 59.6923 48.5727C59.7574 48.8249 59.7196 49.0926 59.587 49.3169C59.4544 49.5412 59.238 49.7037 58.9853 49.7687Z" fill="#91B3FA"/>
<path d="M20.315 30.6017L12.3098 32.6623C12.1887 32.6933 12.0601 32.6751 11.9524 32.6117C11.8447 32.5482 11.7666 32.4447 11.7352 32.3239L9.89764 25.2114C9.86655 25.0905 9.88477 24.9622 9.94832 24.8546C10.0119 24.7471 10.1156 24.6692 10.2366 24.6379L18.2418 22.5773C18.3629 22.5463 18.4915 22.5645 18.5992 22.6279C18.7069 22.6913 18.785 22.7948 18.8164 22.9157L20.6539 30.0282C20.685 30.1491 20.6668 30.2774 20.6033 30.3849C20.5397 30.4924 20.436 30.5704 20.315 30.6017Z" fill="#91B3FA"/>
<path d="M24.0298 44.9826L16.0246 47.0431C15.9035 47.0741 15.775 47.056 15.6673 46.9925C15.5595 46.9291 15.4814 46.8256 15.4501 46.7048L13.6125 39.5922C13.5814 39.4713 13.5996 39.343 13.6632 39.2355C13.7267 39.128 13.8304 39.05 13.9515 39.0187L21.9566 36.9582C22.0778 36.9271 22.2063 36.9453 22.314 37.0087C22.4217 37.0722 22.4998 37.1757 22.5312 37.2965L24.3688 44.4091C24.3999 44.53 24.3817 44.6583 24.3181 44.7658C24.2546 44.8733 24.1509 44.9512 24.0298 44.9826Z" fill="#91B3FA"/>
<path d="M27.7446 59.3644L19.7395 61.4249C19.6183 61.456 19.4898 61.4378 19.3821 61.3744C19.2744 61.3109 19.1963 61.2074 19.1649 61.0866L17.3273 53.9741C17.2962 53.8531 17.3145 53.7249 17.378 53.6173C17.4416 53.5098 17.5452 53.4319 17.6663 53.4006L25.6715 51.34C25.7926 51.309 25.9211 51.3272 26.0289 51.3906C26.1366 51.454 26.2147 51.5575 26.2461 51.6784L28.0836 58.7909C28.1147 58.9118 28.0965 59.0401 28.033 59.1476C27.9694 59.2551 27.8657 59.3331 27.7446 59.3644Z" fill="#91B3FA"/>
<path d="M80.3624 13.4775H34.1674C32.6011 13.4793 31.0995 14.1011 29.992 15.2066C28.8845 16.312 28.2615 17.8109 28.2598 19.3742V73.5164C28.2615 75.0798 28.8845 76.5786 29.992 77.684C31.0995 78.7895 32.6011 79.4113 34.1674 79.4131H80.3624C81.9286 79.4113 83.4302 78.7895 84.5377 77.684C85.6452 76.5786 86.2682 75.0798 86.27 73.5164V19.3742C86.2682 17.8109 85.6452 16.312 84.5377 15.2066C83.4302 14.1011 81.9286 13.4793 80.3624 13.4775Z" fill="#91B3FA"/>
<path d="M80.363 15.1746H34.1679C33.0525 15.1758 31.9832 15.6186 31.1945 16.4058C30.4058 17.1931 29.9622 18.2604 29.9609 19.3737V73.5159C29.9622 74.6292 30.4058 75.6965 31.1945 76.4838C31.9832 77.271 33.0525 77.7138 34.1679 77.715H80.363C81.4783 77.7138 82.5476 77.271 83.3363 76.4837C84.125 75.6965 84.5686 74.6292 84.5699 73.5159V19.3737C84.5686 18.2604 84.125 17.1931 83.3363 16.4059C82.5476 15.6186 81.4783 15.1758 80.363 15.1746Z" fill="white"/>
<path d="M73.4118 44.9258H50.0513C49.922 44.926 49.794 44.9007 49.6745 44.8514C49.555 44.8021 49.4464 44.7298 49.3549 44.6386C49.2635 44.5474 49.1909 44.4391 49.1414 44.3199C49.0919 44.2007 49.0664 44.0729 49.0664 43.9439C49.0664 43.8148 49.0919 43.687 49.1414 43.5678C49.1909 43.4486 49.2635 43.3403 49.3549 43.2491C49.4464 43.1579 49.555 43.0856 49.6745 43.0363C49.794 42.9871 49.922 42.9618 50.0513 42.9619H73.4118C73.6725 42.9622 73.9225 43.0658 74.1067 43.2499C74.291 43.434 74.3945 43.6836 74.3945 43.9439C74.3945 44.2041 74.291 44.4537 74.1067 44.6378C73.9225 44.8219 73.6725 44.9255 73.4118 44.9258Z" fill="#91B3FA"/>
<path d="M77.4699 48.2393H50.0513C49.922 48.2394 49.794 48.2141 49.6745 48.1649C49.555 48.1156 49.4464 48.0433 49.3549 47.9521C49.2635 47.8609 49.1909 47.7526 49.1414 47.6334C49.0919 47.5142 49.0664 47.3864 49.0664 47.2573C49.0664 47.1283 49.0919 47.0005 49.1414 46.8813C49.1909 46.7621 49.2635 46.6538 49.3549 46.5626C49.4464 46.4714 49.555 46.3991 49.6745 46.3498C49.794 46.3005 49.922 46.2752 50.0513 46.2754H77.4699C77.7308 46.2754 77.981 46.3788 78.1655 46.563C78.35 46.7471 78.4536 46.9969 78.4536 47.2573C78.4536 47.5178 78.35 47.7675 78.1655 47.9517C77.981 48.1358 77.7308 48.2393 77.4699 48.2393Z" fill="#91B3FA"/>
<path d="M73.4118 59.7774H50.0513C49.922 59.7775 49.794 59.7522 49.6745 59.703C49.555 59.6537 49.4464 59.5814 49.3549 59.4902C49.2635 59.399 49.1909 59.2907 49.1414 59.1715C49.0919 59.0523 49.0664 58.9245 49.0664 58.7954C49.0664 58.6664 49.0919 58.5386 49.1414 58.4194C49.1909 58.3002 49.2635 58.1919 49.3549 58.1007C49.4464 58.0095 49.555 57.9372 49.6745 57.8879C49.794 57.8386 49.922 57.8133 50.0513 57.8135H73.4118C73.6727 57.8135 73.9229 57.9169 74.1074 58.1011C74.2919 58.2852 74.3956 58.535 74.3956 58.7954C74.3956 59.0559 74.2919 59.3056 74.1074 59.4898C73.9229 59.6739 73.6727 59.7774 73.4118 59.7774Z" fill="#91B3FA"/>
<path d="M77.4699 63.0918H50.0513C49.922 63.092 49.794 63.0667 49.6745 63.0174C49.555 62.9681 49.4464 62.8958 49.3549 62.8046C49.2635 62.7134 49.1909 62.6051 49.1414 62.4859C49.0919 62.3667 49.0664 62.2389 49.0664 62.1099C49.0664 61.9808 49.0919 61.8531 49.1414 61.7339C49.1909 61.6146 49.2635 61.5063 49.3549 61.4152C49.4464 61.324 49.555 61.2516 49.6745 61.2024C49.794 61.1531 49.922 61.1278 50.0513 61.1279H77.4699C77.5991 61.1278 77.7272 61.1531 77.8467 61.2024C77.9662 61.2516 78.0747 61.324 78.1662 61.4152C78.2577 61.5063 78.3302 61.6146 78.3797 61.7339C78.4293 61.8531 78.4547 61.9808 78.4547 62.1099C78.4547 62.2389 78.4293 62.3667 78.3797 62.4859C78.3302 62.6051 78.2577 62.7134 78.1662 62.8046C78.0747 62.8958 77.9662 62.9681 77.8467 63.0174C77.7272 63.0667 77.5991 63.092 77.4699 63.0918Z" fill="#91B3FA"/>
<path d="M44.8169 49.7442H36.5498C36.4248 49.7441 36.3049 49.6944 36.2164 49.6061C36.128 49.5179 36.0783 49.3982 36.0781 49.2733V41.9281C36.0783 41.8033 36.128 41.6836 36.2164 41.5953C36.3049 41.5071 36.4248 41.4574 36.5498 41.4573H44.8169C44.942 41.4574 45.0619 41.5071 45.1503 41.5953C45.2388 41.6836 45.2885 41.8033 45.2886 41.9281V49.2733C45.2885 49.3982 45.2388 49.5179 45.1503 49.6061C45.0619 49.6944 44.942 49.7441 44.8169 49.7442Z" fill="#91B3FA"/>
<path d="M44.8169 64.5965H36.5498C36.4248 64.5964 36.3049 64.5467 36.2164 64.4584C36.128 64.3702 36.0783 64.2505 36.0781 64.1256V56.7804C36.0783 56.6556 36.128 56.5359 36.2164 56.4476C36.3049 56.3594 36.4248 56.3097 36.5498 56.3096H44.8169C44.942 56.3097 45.0619 56.3594 45.1503 56.4476C45.2388 56.5359 45.2885 56.6556 45.2886 56.7804V64.1256C45.2885 64.2505 45.2388 64.3702 45.1503 64.4584C45.0619 64.5467 44.942 64.5964 44.8169 64.5965Z" fill="#91B3FA"/>
<path d="M73.437 28.3926H56.2142C55.9533 28.3926 55.7031 28.2892 55.5186 28.105C55.3341 27.9209 55.2305 27.6711 55.2305 27.4107C55.2305 27.1502 55.3341 26.9005 55.5186 26.7163C55.7031 26.5322 55.9533 26.4287 56.2142 26.4287H73.437C73.6979 26.4287 73.9481 26.5322 74.1326 26.7163C74.3171 26.9005 74.4208 27.1502 74.4208 27.4107C74.4208 27.6711 74.3171 27.9209 74.1326 28.105C73.9481 28.2892 73.6979 28.3926 73.437 28.3926Z" fill="#91B3FA"/>
<path d="M77.4951 31.7061H56.2142C56.085 31.7061 55.9571 31.6807 55.8378 31.6313C55.7184 31.582 55.61 31.5097 55.5186 31.4185C55.4273 31.3273 55.3548 31.2191 55.3054 31.0999C55.2559 30.9808 55.2305 30.8531 55.2305 30.7241C55.2305 30.5952 55.2559 30.4675 55.3054 30.3484C55.3548 30.2292 55.4273 30.121 55.5186 30.0298C55.61 29.9386 55.7184 29.8663 55.8378 29.8169C55.9571 29.7676 56.085 29.7422 56.2142 29.7422H77.4951C77.756 29.7422 78.0062 29.8456 78.1907 30.0298C78.3752 30.2139 78.4788 30.4637 78.4788 30.7241C78.4788 30.9846 78.3752 31.2343 78.1907 31.4185C78.0062 31.6026 77.756 31.7061 77.4951 31.7061Z" fill="#91B3FA"/>
<path d="M52.4023 35.7227H36.5245C36.3994 35.7225 36.2795 35.6729 36.1911 35.5846C36.1026 35.4963 36.0529 35.3767 36.0527 35.2518V22.883C36.0529 22.7581 36.1026 22.6384 36.1911 22.5502C36.2795 22.4619 36.3994 22.4122 36.5245 22.4121H52.4023C52.5274 22.4122 52.6473 22.4619 52.7357 22.5502C52.8242 22.6384 52.8739 22.7581 52.8741 22.883V35.2518C52.8739 35.3767 52.8242 35.4963 52.7357 35.5846C52.6473 35.6729 52.5274 35.7225 52.4023 35.7227Z" fill="#005594"/>
<path d="M81.5 86C89.5081 86 96 79.5081 96 71.5C96 63.4919 89.5081 57 81.5 57C73.4919 57 67 63.4919 67 71.5C67 79.5081 73.4919 86 81.5 86Z" fill="#005594"/>
<path d="M86.7218 70.1481H82.9709V66.404C82.9709 66.0316 82.8227 65.6745 82.5589 65.4112C82.2951 65.1479 81.9373 65 81.5642 65C81.1912 65 80.8334 65.1479 80.5696 65.4112C80.3058 65.6745 80.1576 66.0316 80.1576 66.404V70.1481H76.4066C76.0336 70.1481 75.6758 70.296 75.412 70.5593C75.1482 70.8226 75 71.1797 75 71.5521C75 71.9244 75.1482 72.2816 75.412 72.5449C75.6758 72.8082 76.0336 72.9561 76.4066 72.9561H80.1576V76.7001C80.1576 77.0725 80.3058 77.4296 80.5696 77.6929C80.8334 77.9562 81.1912 78.1042 81.5642 78.1042C81.9373 78.1042 82.2951 77.9562 82.5589 77.6929C82.8227 77.4296 82.9709 77.0725 82.9709 76.7001V72.9561H86.7218C87.0949 72.9561 87.4527 72.8082 87.7165 72.5449C87.9803 72.2816 88.1285 71.9244 88.1285 71.5521C88.1285 71.1797 87.9803 70.8226 87.7165 70.5593C87.4527 70.296 87.0949 70.1481 86.7218 70.1481Z" fill="white"/>
</g>
<defs>
<clipPath id="clip0_724_2547">
<rect width="96" height="86" fill="white"/>
</clipPath>
</defs>
</svg>
